<?xml version="1.0" standalone="no"?><!DOCTYPE svg PUBLIC "-//W3C//DTD SVG 1.1//EN" "http://www.w3.org/Graphics/SVG/1.1/DTD/svg11.dtd"><svg t="1740224493330" class="icon" viewBox="0 0 1024 1024" version="1.1" xmlns="http://www.w3.org/2000/svg" p-id="20421" xmlns:xlink="http://www.w3.org/1999/xlink" width="200" height="200"><path d="M857.9 101.6v551.5H693.2c-24.9 0-45 20.1-45 45s20.1 45 45 45h164.7V844H167.5V376.6h193.4c24.9 0 45-20.1 45-45s-20.1-45-45-45H167.5V106.2h-90V934h870.4V101.6h-90z" p-id="20422" fill="#15ed81"></path><path d="M614.9 418.4c53.1 0 87.3-38.9 87.3-99.2 0-29.6-8.3-54.3-24.1-71.5-15.5-16.8-37.3-25.7-63.2-25.7-25.9 0-47.8 8.9-63.2 25.6-15.8 17.1-24.1 41.9-24.1 71.6-0.1 60.3 34.2 99.2 87.3 99.2z m0-149.5c20.9 0 33.4 18.8 33.4 50.3 0 32.1-12.8 52-33.4 52-20.4 0-33.1-19.9-33.1-52-0.1-31.5 12.3-50.3 33.1-50.3zM731.2 340.6c4.6-4.6 8.9-8.5 13.8-8.5 3.6 0 8.4 1 8.4 9.5 0 12.1-19.1 30-41.3 50.7l-1.6 1.5V415h81.2v-30.7h-23.9c-1.3 0-2.7 0-4.1 0.1 12.4-13.9 23.3-29.1 23.3-44.2 0-22-15.9-37.3-38.7-37.3-15 0-26 5-37.7 17.4l-3.4 3.6 20.4 20.2 3.6-3.5zM334.9 528.9c-25.9 0-47.8 8.9-63.2 25.6-15.8 17.1-24.1 41.9-24.1 71.6 0 60.2 34.3 99.2 87.3 99.2s87.3-38.9 87.3-99.2c0-29.6-8.3-54.3-24.1-71.5-15.4-16.8-37.3-25.7-63.2-25.7z m0 149.2c-20.4 0-33.1-19.9-33.1-52 0-31.5 12.4-50.3 33.1-50.3 20.9 0 33.4 18.8 33.4 50.3 0 32.1-12.8 52-33.4 52zM451.3 647.5c4.6-4.6 8.9-8.5 13.8-8.5 3.6 0 8.4 1 8.4 9.5 0 12.1-19.1 30-41.3 50.7l-1.6 1.5v21.2h81.2v-30.7h-23.9c-1.3 0-2.7 0-4.1 0.1 12.4-13.9 23.3-29.1 23.3-44.2 0-22-15.9-37.3-38.7-37.3-15 0-26 5-37.7 17.4l-3.4 3.6 20.4 20.2 3.6-3.5z" p-id="20423" fill="#15ed81"></path></svg>