<?xml version="1.0" standalone="no"?><!DOCTYPE svg PUBLIC "-//W3C//DTD SVG 1.1//EN" "http://www.w3.org/Graphics/SVG/1.1/DTD/svg11.dtd"><svg t="1740224029976" class="icon" viewBox="0 0 1024 1024" version="1.1" xmlns="http://www.w3.org/2000/svg" p-id="9278" xmlns:xlink="http://www.w3.org/1999/xlink" width="200" height="200"><path d="M765.177856 403.60448c0 0 96.360448-25.453568 158.266368 36.288512C945.314816 422.33856 959.488 394.236928 959.488 362.551296c0-53.189632-26.146816-100.922368-97.297408-83.49184-13.643776-50.09408-57.222144-99.862528-114.525184-99.862528-48.832512 0-87.563264 24.925184-106.54208 67.280896C662.259712 256.375808 735.40608 297.509888 765.177856 403.60448z" p-id="9279" fill="#15ed81"></path><path d="M731.78112 444.453888c-29.3632-110.533632-122.873856-220.37504-245.869568-220.37504-142.871552 0-245.46304 101.981184-255.36 264.482816C141.114368 488.561664 63.488 556.290048 63.488 658.311168 63.488 760.292352 131.786752 844.8 216.011776 844.8l536.66304 0c104.139776 0 187.915264-98.23232 187.915264-214.346752C940.59008 513.078272 884.508672 405.925888 731.78112 444.453888zM308.224 739.328c-29.973504 0-54.272-24.298496-54.272-54.272 0-29.973504 24.298496-54.272 54.272-54.272s54.272 24.298496 54.272 54.272C362.496 715.029504 338.197504 739.328 308.224 739.328zM430.08 510.976c-24.884224 0-45.056-20.171776-45.056-45.056s20.171776-45.056 45.056-45.056 45.056 20.171776 45.056 45.056S454.964224 510.976 430.08 510.976zM587.264 656.384c-20.641792 0-37.376-16.734208-37.376-37.376s16.734208-37.376 37.376-37.376 37.376 16.734208 37.376 37.376S607.905792 656.384 587.264 656.384zM772.096 724.992c-31.670272 0-57.344-25.673728-57.344-57.344 0-31.670272 25.673728-57.344 57.344-57.344s57.344 25.673728 57.344 57.344C829.44 699.318272 803.766272 724.992 772.096 724.992z" p-id="9280" fill="#15ed81"></path></svg>