<?xml version="1.0" standalone="no"?><!DOCTYPE svg PUBLIC "-//W3C//DTD SVG 1.1//EN" "http://www.w3.org/Graphics/SVG/1.1/DTD/svg11.dtd"><svg t="1740224396812" class="icon" viewBox="0 0 1024 1024" version="1.1" xmlns="http://www.w3.org/2000/svg" p-id="18015" xmlns:xlink="http://www.w3.org/1999/xlink" width="200" height="200"><path d="M970.370169 447.783051c-13.364068-27.595932-29.591864-57.534915-48.162711-88.949153a43.389831 43.389831 0 0 0-74.717289 44.170848c17.355932 29.331525 32.455593 57.101017 44.865085 82.701017C929.410169 562.158644 937.220339 607.457627 937.220339 631.235254c0 164.881356-137.285424 298.695593-312.40678 305.985085-175.121356-7.289492-312.40678-141.450847-312.406779-305.898305 0-24.211525 7.810169-69.423729 44.865084-145.616271a1494.692881 1494.692881 0 0 1 106.391865-179.460339C504.797288 245.412881 546.711864 190.915254 573.960678 155.162034 597.911864 124.442034 616.135593 102.052881 624.813559 91.986441c8.677966 10.066441 26.901695 32.455593 50.852882 63.175593s47.902373 62.654915 70.291525 93.722034a43.389831 43.389831 0 0 0 70.465085-50.679322 3068.355254 3068.355254 0 0 0-72.374237-96.412204c-31.067119-39.831864-53.195932-66.212881-58.055594-71.853559a77.494237 77.494237 0 0 0-122.359322 0c-4.859661 5.640678-26.988475 32.021695-58.055593 71.853559C477.982373 137.025085 436.935593 190.915254 395.715254 251.661017c-11.281356-15.44678-21.521356-29.157966-30.112542-40.526102-26.554576-34.711864-44.865085-57.187797-47.381695-60.138305a27.943051 27.943051 0 0 0-46.340339 0c-2.51661 2.950508-20.827119 25.252881-47.381695 60.138305-23.170169 30.546441-58.142373 78.101695-92.941017 130.776949A1299.351864 1299.351864 0 0 0 40.87322 499.503729C13.711186 556.865085 0 603.986441 0 639.652881c0 160.542373 131.124068 291.319322 295.050847 297.567458a314.92339 314.92339 0 0 0 70.638645-10.847458A424.265763 424.265763 0 0 0 623.164746 1024h3.297627c222.67661-8.677966 397.277288-180.762034 397.537627-392.677966 0-49.204068-17.355932-109.168814-53.629831-183.538983zM86.779661 639.652881c0-10.32678 3.210847-40.96 32.542373-103.094237a1221.857627 1221.857627 0 0 1 84.696949-146.744407c33.410169-50.679322 67.167458-96.498983 89.55661-126.004068l1.475254-1.909152 1.475255 1.909152c13.016949 17.355932 30.025763 40.005424 48.423051 66.039323a1332.414915 1332.414915 0 0 0-65.692204 117.933559C242.983051 522.15322 225.627119 582.117966 225.627119 631.322034A379.400678 379.400678 0 0 0 295.571525 850.440678H295.050847c-116.892203-6.161356-208.271186-98.147797-208.271186-210.787797z" p-id="18016" fill="#15ed81"></path><path d="M385.822373 560.59661v211.134915H451.254237v-78.101694h35.753221c26.033898 0 45.906441-5.987797 58.66305-17.96339a65.258305 65.258305 0 0 0 19.265085-49.985085 63.349153 63.349153 0 0 0-17.355932-47.989153c-11.802034-11.281356-29.505085-16.835254-53.109153-16.835254z m115.677288 66.64678a21.174237 21.174237 0 0 1-7.63661 16.835254 41.567458 41.567458 0 0 1-26.554576 6.508475H451.254237v-47.121356h18.570848a34.191186 34.191186 0 0 1 24.905762 6.942373 23.430508 23.430508 0 0 1 6.768814 16.835254zM854.258983 771.731525V510.871864h-80.965424v91.292204H685.212203V510.871864h-80.618305v260.859661h80.618305V666.207458h88.081356v105.524067h80.965424z" p-id="18017" fill="#15ed81"></path></svg>