<?xml version="1.0" standalone="no"?><!DOCTYPE svg PUBLIC "-//W3C//DTD SVG 1.1//EN" "http://www.w3.org/Graphics/SVG/1.1/DTD/svg11.dtd"><svg t="1740195588358" class="icon" viewBox="0 0 1024 1024" version="1.1" xmlns="http://www.w3.org/2000/svg" p-id="8403" xmlns:xlink="http://www.w3.org/1999/xlink" width="200" height="200"><path d="M778.6 501.9m-83.8 0a83.8 83.8 0 1 0 167.6 0 83.8 83.8 0 1 0-167.6 0Z" fill="#1afa29" p-id="8404"></path><path d="M778.6 418.1c46.3 0 83.8 37.5 83.8 83.8s-37.5 83.8-83.8 83.8-83.8-37.5-83.8-83.8 37.5-83.8 83.8-83.8m0-20c-57.2 0-103.8 46.5-103.8 103.8 0 57.2 46.5 103.8 103.8 103.8s103.8-46.5 103.8-103.8c0-57.2-46.6-103.8-103.8-103.8z" fill="#1afa29" p-id="8405"></path><path d="M328.5 644.7m-118.1 0a118.1 118.1 0 1 0 236.2 0 118.1 118.1 0 1 0-236.2 0Z" fill="#1afa29" p-id="8406"></path><path d="M328.5 526.6c65.2 0 118.1 52.9 118.1 118.1 0 65.2-52.9 118.1-118.1 118.1s-118.1-52.9-118.1-118.1c0-65.2 52.9-118.1 118.1-118.1m0-20c-36.9 0-71.6 14.4-97.6 40.4s-40.4 60.7-40.4 97.6 14.4 71.6 40.4 97.6c26.1 26.1 60.7 40.4 97.6 40.4s71.6-14.4 97.6-40.4c26.1-26.1 40.4-60.7 40.4-97.6S452.1 573 426.1 547s-60.7-40.4-97.6-40.4z" fill="#1afa29" p-id="8407"></path><path d="M413.8 817h196.8s11.3-127 138.3-201.1l-31.2-53.2s-98.8 36.9-148.2 130.2c1.5-67.6 47.1-194.4 47.1-194.4l-81.1-37.6s-62.7 168.2-64.2 186.9c-52.6-92.4-115.4-135.1-115.4-135.1L314 573.4S396.5 646 413.8 817z" fill="#1afa29" p-id="8408"></path><path d="M535.5 460.9l81.1 37.6S571 625.3 569.5 692.9c49.4-93.3 148.2-130.2 148.2-130.2l31.2 53.2C621.9 690 610.6 817 610.6 817H413.8C396.5 646 314 573.4 314 573.4l41.9-60.7s62.8 42.7 115.4 135.1c1.5-18.8 64.2-186.9 64.2-186.9m0-20c-2.6 0-5.2 0.5-7.6 1.5-5.2 2.1-9.2 6.3-11.1 11.5-0.2 0.4-15.9 42.7-31.6 86.7-9.1 25.4-15.7 44.5-20.5 59-47.6-69-95.1-101.8-97.4-103.4-3.4-2.3-7.4-3.5-11.2-3.5-6.4 0-12.6 3-16.5 8.6l-42 60.7c-5.8 8.4-4.5 19.7 3.2 26.3 0.9 0.8 19.8 18.3 40.4 54.6 19.4 34.1 44.3 92.4 52.7 176.1 1 10.2 9.6 18 19.9 18h196.8c10.4 0 19-7.8 19.9-18.2 0.1-1 3.2-30.5 20.5-67.7 23.1-49.9 59.4-89.6 108-118 4.6-2.7 7.9-7.1 9.3-12.2 1.3-5.1 0.6-10.6-2.1-15.2L735 552.5c-3.7-6.3-10.3-9.9-17.3-9.9-2.3 0-4.7 0.4-7 1.3-1.1 0.4-27.3 10.3-59.8 32.3-17.9 12.1-34.3 25.6-48.9 40.2 13.5-55.4 33.2-110.3 33.5-111.2 3.5-9.8-1-20.6-10.4-24.9L544 442.7c-2.8-1.2-5.6-1.8-8.5-1.8z" fill="#1afa29" p-id="8409"></path><path d="M521.4 817.2l89.3-0.2s4.6-52.3 41.6-109.4c4.3-5.9 28.7-45.3 72.1-75.7-2.3-8-16.5-15.8-20.5-19.9-42.6 24.9-115.5 124.9-115.5 124.9s-26.1-2.3-18.8-43.9c0.6-25.2 15.5-90.7 15.5-90.7l22.7-77.3-19.8-6.7c-0.1-0.2-82.8 174.3-66.6 298.9z" fill="#1afa29" p-id="8410"></path><path d="M776.9 538.2c15.4-22.6 24.5-49.9 24.5-79.3 0-77.7-63-140.7-140.7-140.7-3.6 0-7.2 0.1-10.7 0.4-28-50.6-81.9-84.8-143.8-84.8-61.8 0-115.5 34.1-143.6 84.5-64.7 1.6-119.4 44-139.1 102.4-45.6 16.6-78.2 60.4-78.2 111.8 0 65.7 53.3 119 119 119 31.9 0 60.9-12.6 82.2-33 6.5 0.9 13.2 1.3 19.9 1.3 48.6 0 91.8-23 119.4-58.7 6.7 0.8 13.5 1.3 20.5 1.3 17.9 0 35-2.9 51.1-8.1 25.7 27.9 62.5 45.3 103.4 45.3 3.8 0 7.6-0.2 11.4-0.5-7.3 14.7-11.4 31.2-11.4 48.7 0 60.6 49.2 109.8 109.8 109.8 60.6 0 109.8-49.2 109.8-109.8-0.1-58.5-45.8-106.3-103.5-109.6z" fill="#1afa29" p-id="8411"></path><path d="M817.4 747.1c-15.2 7.2-32.3 11-50.3 10.4-58.4-1.8-105.6-49.8-106.4-108.2-0.2-18.1 3.9-35.1 11.4-50.2-3.8 0.3-7.5 0.5-11.4 0.5-40.9 0-77.7-17.5-103.4-45.3-16.1 5.3-33.3 8.1-51.1 8.1-6.9 0-13.8-0.4-20.5-1.3-27.6 35.7-70.8 58.7-119.4 58.7-6.8 0-13.4-0.5-19.9-1.3-21.3 20.3-50 32.9-81.8 33-64.3 0.2-117.6-51.4-119.4-115.6-1.4-52.8 31.6-98.1 78.2-115.1 19.8-58.4 74.4-100.8 139.1-102.4 28.1-50.4 81.8-84.5 143.6-84.5 61.9 0 115.8 34.2 143.8 84.8 3.5-0.3 7.1-0.4 10.7-0.4 77.7 0 140.7 63 140.7 140.7 0 29.4-9 56.7-24.5 79.3 57.7 3.3 103.4 51.1 103.4 109.6 0 25.5-8.7 49-23.3 67.7-2.9 3.7-2.9 8.9 0.1 12.5 0 0.1 0.1 0.1 0.1 0.2 4 4.8 11.5 4.8 15.4-0.1 18-22.8 27.7-50.7 27.7-80.2 0-58.4-38.7-108.2-92.4-124.3 8.9-20.2 13.5-42.1 13.5-64.6 0-21.7-4.3-42.7-12.6-62.5-8.1-19.1-19.7-36.3-34.4-51.1-14.7-14.7-31.9-26.3-51.1-34.4-19.7-8.3-40.6-12.6-62.2-12.6-33.8-52.4-92.1-84.4-154.9-84.4-33.4 0-66.2 9.1-94.7 26.2-24.5 14.7-45.2 34.9-60.6 58.9-31.5 2.8-61.2 14.2-86.7 33.2-25.4 19-44.8 44.2-56.4 73.3-22.7 10.1-42.2 26-56.8 46.5-16.9 23.7-25.8 51.6-25.7 80.8 0.1 36.7 14.8 72.1 40.8 98.1 26.2 26.2 61.1 40.6 98.2 40.6 32.8 0 64-11.4 88.9-32.2 4.4 0.3 8.8 0.5 13.2 0.5 26.9 0 52.7-6.1 76.6-18.1 19.4-9.8 37-23.4 51.5-39.7 3.9 0.3 7.9 0.4 11.8 0.4 15.4 0 30.6-1.9 45.3-5.6 12.9 12 27.5 21.6 43.6 28.9 15.6 7 32 11.4 48.8 13.1-2.2 9.5-3.3 19.2-3.3 29.1 0 35.5 14.2 68.9 39.8 93.6 24.5 23.6 57.5 36.6 91.4 36.2 18.9-0.2 37.2-4.5 53.8-12.3 5.7-2.7 7.5-9.8 3.8-14.9 0-0.1-0.1-0.1-0.1-0.2-2.6-4.1-7.6-5.4-11.9-3.4z" fill="#1afa29" p-id="8412"></path><path d="M485.7 561.1c-27.6 35.7-70.8 58.7-119.4 58.7-6.8 0-13.4-0.5-19.9-1.3-21.4 20.4-50.3 33-82.2 33-65.7 0-119-53.3-119-119 0 0 65.5 102.4 136.7 78.1 71.2-24.3 64-20.7 64-20.7-0.8 0.9 59.4 23.5 105.4-10.4 26.8-19.7 34.4-18.4 34.4-18.4zM713.4 712.5c15.7 3.9 32.5 6 45.3 5.6 30.6-0.9 75.2-28.2 65.8-89.5-10.4-68-75.5-82-75.5-82s30.5-37.5 9.8-110C729.4 334.4 625 321.8 625 321.8c-5.4-61.3-79.1-84.3-61.1-77.5 36.8 13.8 67.3 40.4 86.1 74.4 3.5-0.3 7.1-0.4 10.7-0.4 77.7 0 140.7 63 140.7 140.7 0 29.4-9 56.7-24.5 79.3 57.7 3.3 103.4 51.1 103.4 109.6 0 60.6-49.2 109.8-109.8 109.8-45.9 0-85.2-28.1-101.6-68.1 18.3 9.1 22.3 17.4 44.5 22.9z" fill="#1afa29" p-id="8413"></path><path d="M515.5 405.4c-1.2 0-2.3-0.2-3.5-0.6-5.2-1.9-7.8-7.7-5.9-12.8 0.4-1 9.1-24.3 31.6-47.5 20.8-21.4 57.8-47 115.6-46.7 5.5 0 10 4.5 10 10s-4.5 10-10 10c-40.5-0.2-74.3 13.3-100.6 40-19.8 20.2-27.7 40.9-27.8 41.1-1.5 4-5.3 6.5-9.4 6.5zM438 484.1c-4.6 0-8.7-3.2-9.7-7.8-0.5-2.3-13.9-57.5-77.7-59.8-5.5-0.2-9.8-4.8-9.6-10.4 0.2-5.5 4.8-9.8 10.4-9.6 41.5 1.5 65.5 21.9 78.4 38.7 13.9 18.1 17.9 36 18.1 36.7 1.2 5.4-2.2 10.7-7.6 11.9-0.9 0.2-1.6 0.3-2.3 0.3zM298.5 427.9c-3 0-5.9-1.3-7.9-3.8-3.4-4.3-2.6-10.7 1.7-14.1 1.7-1.3 6-3.9 9.4-5.9 4.8-2.8 10.9-1.1 13.7 3.6 2.8 4.8 1.1 10.9-3.6 13.7-2.8 1.6-6.3 3.7-7.1 4.3-1.9 1.5-4.1 2.2-6.2 2.2z" fill="#1afa29" p-id="8414"></path></svg>