<?xml version="1.0" standalone="no"?><!DOCTYPE svg PUBLIC "-//W3C//DTD SVG 1.1//EN" "http://www.w3.org/Graphics/SVG/1.1/DTD/svg11.dtd"><svg t="1740224437930" class="icon" viewBox="0 0 1024 1024" version="1.1" xmlns="http://www.w3.org/2000/svg" p-id="18222" xmlns:xlink="http://www.w3.org/1999/xlink" width="200" height="200"><path d="M512.725333 767.872a219.264 219.264 0 0 0 157.184-65.536 227.541333 227.541333 0 0 0 65.28-159.701333c0-124.586667-87.082667-252.501333-222.464-457.301334-135.68 204.8-222.464 332.8-222.464 457.301334 0.042667 59.946667 23.552 117.418667 65.28 159.701333a219.264 219.264 0 0 0 157.184 65.536z m-1.664-537.429333c17.877333 27.946667 27.733333 60.458667 28.501334 93.824 0 110.890667-112.213333 129.621333-112.213334 61.354666 1.621333-44.288 56.874667-114.133333 83.712-155.306666v0.128z m1.706667 708.096c-98.901333 0-239.616-25.6-304.938667-100.693334a425.216 425.216 0 0 1 85.418667-37.546666c36.864 25.6 112.213333 52.906667 219.477333 52.906666 107.264 0 182.613333-27.306667 221.141334-52.906666 29.781333 9.386667 58.496 22.016 85.589333 37.674666C752.469333 913.066667 611.754667 938.666667 512.853333 938.666667l-0.128-0.128z m299.733333-472.661334c26.88-44.373333 73.685333-23.893333 97.322667-64.853333 28.501333-47.786667-30.165333-97.28-77.013333-54.613333-25.258667 24.234667-30.250667 69.973333-20.309334 119.466666zM191.061333 346.197333c-45.226667-44.373333-105.514667 5.12-77.013333 54.613334 25.088 40.917333 70.357333 20.48 97.28 64.853333 11.562667-49.28 6.570667-95.018667-20.266667-119.253333v-0.213334z" fill="#15ed81" p-id="18223"></path></svg>