<?xml version="1.0" standalone="no"?><!DOCTYPE svg PUBLIC "-//W3C//DTD SVG 1.1//EN" "http://www.w3.org/Graphics/SVG/1.1/DTD/svg11.dtd"><svg t="1740224466290" class="icon" viewBox="0 0 1024 1024" version="1.1" xmlns="http://www.w3.org/2000/svg" p-id="19317" xmlns:xlink="http://www.w3.org/1999/xlink" width="200" height="200"><path d="M819.368421 1023.993578a169.306057 169.306057 0 0 1-104.13494-34.711646l-15.099567-11.628402a78.101205 78.101205 0 0 0-89.295711 0L607.453818 980.60402a176.074828 176.074828 0 0 1-208.269881 0 78.101205 78.101205 0 0 0-89.295711 0l-4.338956 3.297606a169.219278 169.219278 0 0 1-104.13494 34.190972 169.219278 169.219278 0 0 1-104.13494-34.190972l-19.091406-14.926008a46.947502 46.947502 0 0 1-7.549783-66.472803 47.988852 47.988852 0 0 1 37.748916-18.050056 46.860723 46.860723 0 0 1 29.591679 10.153156l19.091405 15.012787a74.109366 74.109366 0 0 0 44.604466 13.884659 74.196145 74.196145 0 0 0 44.691246-13.884659l4.252176-3.471164a170.260627 170.260627 0 0 1 104.134941-34.190972 170.173848 170.173848 0 0 1 104.13494 34.190972 78.101205 78.101205 0 0 0 89.38249 0l3.124048-2.516595a175.640932 175.640932 0 0 1 208.269881 0l15.012787 11.715181a78.708659 78.708659 0 0 0 89.295711 0l23.256803-18.223614a48.509526 48.509526 0 0 1 65.952129 8.677911 47.034281 47.034281 0 0 1-6.421655 65.518233l-23.343582 18.050057A169.219278 169.219278 0 0 1 819.368421 1023.993578z m45.819374-253.4818a176.508724 176.508724 0 0 1-111.511166-38.703486 263.461399 263.461399 0 0 0 26.033736-103.614265 164.880322 164.880322 0 0 1 15.533461 12.409413l17.355824 15.7938a81.138474 81.138474 0 0 0 105.783743 0l26.988306-24.298153a48.335968 48.335968 0 0 1 66.386024 4.078618 46.947502 46.947502 0 0 1-1.475245 65.691792l-26.814747 24.298152a173.558234 173.558234 0 0 1-118.279936 44.344129z m-709.766397-7.983679a174.512804 174.512804 0 0 1-118.019599-44.344128l-21.955116-19.959197a47.20784 47.20784 0 0 1-2.776932-66.993478 48.422747 48.422747 0 0 1 67.861269-2.690153l21.955117 19.959197a78.101205 78.101205 0 0 0 52.935261 19.698859A78.101205 78.101205 0 0 0 208.26988 648.50034l5.033189-4.686072a160.107471 160.107471 0 0 1 30.980145-22.215454 265.977993 265.977993 0 0 0 22.302233 102.225799 176.595503 176.595503 0 0 1-111.337607 38.703486z" p-id="19318" fill="#15ed81"></path><path d="M807.045786 43.389558v69.423294H668.199199V43.389558zM807.045786 182.236145v69.423294H668.199199v-69.423294zM807.045786 321.082732v69.423294H668.199199v-69.423294z" p-id="19319" fill="#15ed81"></path><path d="M624.809641 454.288676V112.812852A112.812852 112.812852 0 0 0 511.996789 0a112.812852 112.812852 0 0 0-112.812852 112.812852v341.475824a197.856386 197.856386 0 1 0 226.0596 0zM511.996789 720.26667a104.13494 104.13494 0 0 1-34.711647-202.195343V251.659439h69.423294v266.411888A104.13494 104.13494 0 0 1 511.996789 720.26667z" p-id="19320" fill="#15ed81"></path></svg>