<?xml version="1.0" standalone="no"?><!DOCTYPE svg PUBLIC "-//W3C//DTD SVG 1.1//EN" "http://www.w3.org/Graphics/SVG/1.1/DTD/svg11.dtd"><svg t="1740224103448" class="icon" viewBox="0 0 1029 1024" version="1.1" xmlns="http://www.w3.org/2000/svg" p-id="12221" xmlns:xlink="http://www.w3.org/1999/xlink" width="200.9765625" height="200"><path d="M1024 392.533333c0-22.755556-17.066667-45.511111-45.511111-45.511111h-85.333333c-22.755556 0-45.511111 17.066667-45.511112 45.511111 0 22.755556 17.066667 45.511111 45.511112 45.511111h85.333333c28.444444 0 45.511111-22.755556 45.511111-45.511111zM984.177778 523.377778h-28.444445c-22.755556 0-45.511111 17.066667-45.511111 45.511111 0 22.755556 17.066667 45.511111 45.511111 45.511111h28.444445c22.755556 0 45.511111-17.066667 45.511111-45.511111-5.688889-28.444444-22.755556-45.511111-45.511111-45.511111zM984.177778 694.044444h-28.444445c-22.755556 0-45.511111 17.066667-45.511111 45.511112 0 22.755556 17.066667 45.511111 45.511111 45.511111h28.444445c22.755556 0 45.511111-17.066667 45.511111-45.511111-5.688889-28.444444-22.755556-45.511111-45.511111-45.511112zM130.844444 352.711111H45.511111c-28.444444 0-45.511111 17.066667-45.511111 39.822222 0 22.755556 17.066667 45.511111 45.511111 45.511111h85.333333c22.755556 0 39.822222-22.755556 39.822223-45.511111s-17.066667-39.822222-39.822223-39.822222zM73.955556 523.377778H45.511111c-28.444444 0-45.511111 17.066667-45.511111 39.822222 0 22.755556 17.066667 45.511111 45.511111 45.511111h28.444445c22.755556 0 45.511111-17.066667 45.511111-45.511111-5.688889-22.755556-22.755556-39.822222-45.511111-39.822222zM73.955556 694.044444H45.511111c-22.755556 0-45.511111 17.066667-45.511111 45.511112 0 22.755556 17.066667 45.511111 45.511111 45.511111h28.444445c22.755556 0 45.511111-17.066667 45.511111-45.511111-5.688889-28.444444-22.755556-45.511111-45.511111-45.511112zM512 5.688889c-5.688889 0-11.377778 0-17.066667 5.688889C426.666667 85.333333 170.666667 375.466667 170.666667 620.088889c0 284.444444 204.8 398.222222 341.333333 398.222222 119.466667 0 341.333333-113.777778 341.333333-398.222222C853.333333 375.466667 597.333333 85.333333 529.066667 11.377778 523.377778 5.688889 517.688889 5.688889 512 5.688889z m0 927.288889c-96.711111 0-256-85.333333-256-312.888889 0-147.911111 125.155556-347.022222 256-500.622222 130.844444 153.6 256 347.022222 256 500.622222 0 238.933333-187.733333 312.888889-256 312.888889z" p-id="12222" fill="#15ed81"></path></svg>